<svg width="16" height="9" viewBox="0 0 16 9" fill="none" xmlns="http://www.w3.org/2000/svg">
<path d="M9.25473 8.55728L15.5224 2.73063C15.7663 2.51605 15.8882 2.24811 15.8882 1.92626C15.8882 1.60441 15.7661 1.33646 15.5224 1.12188L14.8002 0.442682C14.5627 0.222188 14.274 0.111941 13.9338 0.111941C13.6001 0.111941 13.3079 0.222157 13.0577 0.442682L8.38815 4.78597L3.709 0.442494C3.4715 0.222063 3.18281 0.111816 2.84259 0.111816C2.50888 0.111816 2.21665 0.222031 1.9665 0.442494L1.24442 1.12175C1.00692 1.34222 0.888184 1.61045 0.888184 1.92613C0.888184 2.24194 1.00692 2.51011 1.24442 2.73051L7.51206 8.55728C7.76238 8.77783 8.05444 8.88818 8.38818 8.88818C8.72837 8.88821 9.01723 8.77783 9.25473 8.55728Z" fill="#BE1622"/>
</svg>
