<svg width="24" height="22" viewBox="0 0 24 22" fill="none" xmlns="http://www.w3.org/2000/svg">
<path d="M23.0581 7.83152C22.7903 7.54932 22.4242 7.36578 22.0255 7.31367V7.31289L15.797 6.50521L13.3323 0.976515C12.9724 0.167269 11.9818 -0.214866 11.1198 0.122983C10.7089 0.284059 10.3821 0.590743 10.2106 0.976515L7.74586 6.50521L1.51744 7.31289C0.589484 7.43414 -0.058073 8.23869 0.0710952 9.10981C0.126607 9.48417 0.322125 9.82777 0.622732 10.0792L5.3154 14.0075L4.3512 20.1718C4.24675 20.7977 4.55299 21.4213 5.12788 21.7533C5.69467 22.0935 6.42373 22.0808 6.97664 21.7211L11.7714 18.6601L16.5662 21.7242C17.3399 22.2171 18.3928 22.028 18.9179 21.3017C19.1565 20.9716 19.2543 20.5694 19.1917 20.1749L18.2275 14.0082L22.9202 10.08C23.6197 9.49485 23.6814 8.48816 23.0581 7.83152ZM16.7763 13.1205C16.5663 13.2965 16.4648 13.5599 16.5059 13.8213L17.5102 20.4208L12.2443 17.0598C11.9604 16.8787 11.5875 16.8787 11.3036 17.0598L6.00665 20.4004L7.03691 13.8182C7.07692 13.5578 6.97541 13.2959 6.76656 13.1205L1.74498 8.87163L8.44711 8.00346C8.74056 7.96548 8.99071 7.7847 9.10492 7.52815L11.7814 1.57129C11.7844 1.57478 11.7867 1.57879 11.7881 1.58307L14.437 7.52502C14.5512 7.78157 14.8014 7.96235 15.0948 8.00033L21.8053 8.90698L16.7763 13.1205Z" fill="#FEB300"/>
</svg>
