<svg width="25" height="22" viewBox="0 0 25 22" fill="none" xmlns="http://www.w3.org/2000/svg">
<path d="M23.7437 7.83152C23.4758 7.54932 23.1098 7.36578 22.711 7.31367V7.31289L16.4826 6.50521L14.0179 0.976515C13.658 0.167269 12.6674 -0.214866 11.8054 0.122983C11.3944 0.284059 11.0677 0.590743 10.8961 0.976515L8.43141 6.50521L2.20299 7.31289C1.27503 7.43414 0.627474 8.23869 0.756642 9.10981C0.812154 9.48417 1.00767 9.82777 1.30828 10.0792L6.00095 14.0075L5.03675 20.1718C4.93229 20.7977 5.23854 21.4213 5.81342 21.7533C6.38021 22.0935 7.10927 22.0808 7.66218 21.7211L12.457 18.6601L17.2517 21.7242C18.0254 22.2171 19.0783 22.028 19.6035 21.3017C19.8421 20.9716 19.9398 20.5694 19.8772 20.1749L18.9131 14.0082L23.6057 10.08C24.3052 9.49485 24.367 8.48816 23.7437 7.83152ZM17.4618 13.1205C17.2519 13.2965 17.1503 13.5599 17.1914 13.8213L18.1958 20.4208L12.9298 17.0598C12.6459 16.8787 12.273 16.8787 11.9891 17.0598L6.6922 20.4004L7.72245 13.8182C7.76247 13.5578 7.66096 13.2959 7.4521 13.1205L2.43053 8.87163L9.13266 8.00346C9.42611 7.96548 9.67626 7.7847 9.79047 7.52815L12.467 1.57129C12.47 1.57478 12.4723 1.57879 12.4737 1.58307L15.1226 7.52502C15.2368 7.78157 15.487 7.96235 15.7804 8.00033L22.4909 8.90698L17.4618 13.1205Z" fill="#C7CED6"/>
</svg>
