<svg width="4" height="7" viewBox="0 0 4 7" fill="none" xmlns="http://www.w3.org/2000/svg">
<path d="M0.150815 3.81322L2.80642 6.66982C2.90422 6.78099 3.02634 6.83655 3.17303 6.83655C3.31972 6.83655 3.44185 6.78093 3.53964 6.66982L3.8492 6.34067C3.9497 6.23243 3.99994 6.10085 3.99994 5.9458C3.99994 5.79369 3.94971 5.66055 3.8492 5.54649L1.86966 3.41826L3.84929 1.28564C3.94975 1.1774 4 1.04582 4 0.89076C4 0.738665 3.94977 0.605474 3.84929 0.491465L3.5397 0.162362C3.43922 0.0541157 3.31697 4.18519e-07 3.17309 4.06234e-07C3.02915 3.93945e-07 2.90693 0.0541157 2.80648 0.162362L0.150815 3.01896C0.0502919 3.13305 1.27327e-06 3.26616 1.25965e-06 3.41827C-1.30593e-05 3.57332 0.0502918 3.70497 0.150815 3.81322Z" fill="#375B7D"/>
</svg>
