<svg width="8" height="12" viewBox="0 0 8 12" fill="none" xmlns="http://www.w3.org/2000/svg">
<path d="M6.75637 5.30676L2.09505 0.29265C1.92339 0.097523 1.70903 0 1.45155 0C1.19407 0 0.979713 0.0976309 0.808051 0.29265L0.264692 0.870396C0.0882976 1.0604 0.000100112 1.29135 0.000100112 1.5635C0.000100112 1.83049 0.0882725 2.0642 0.264692 2.2644L3.73933 6.00003L0.264542 9.74335C0.0881975 9.93335 0 10.1643 0 10.4365C0 10.7034 0.0881725 10.9372 0.264542 11.1373L0.807951 11.715C0.98432 11.905 1.1989 12 1.45145 12C1.7041 12 1.91863 11.905 2.09495 11.715L6.75637 6.7009C6.93281 6.50065 7.02109 6.26699 7.02109 6C7.02111 5.72785 6.93281 5.49677 6.75637 5.30676Z" fill="white"/>
</svg>
