<svg width="4" height="7" viewBox="0 0 4 7" fill="none" xmlns="http://www.w3.org/2000/svg">
<path d="M0.150814 3.81322L2.80642 6.66982C2.90422 6.78099 3.02634 6.83655 3.17303 6.83655C3.31972 6.83655 3.44185 6.78093 3.53964 6.66982L3.8492 6.34067C3.9497 6.23243 3.99994 6.10085 3.99994 5.9458C3.99994 5.79369 3.94971 5.66055 3.8492 5.54649L1.86966 3.41826L3.84929 1.28564C3.94975 1.1774 4 1.04582 4 0.890759C4 0.738665 3.94977 0.605474 3.84929 0.491465L3.5397 0.162362C3.43922 0.0541152 3.31697 -5.97124e-08 3.17309 -7.22907e-08C3.02915 -8.48741e-08 2.90693 0.0541152 2.80648 0.162362L0.150814 3.01896C0.0502909 3.13305 3.12133e-07 3.26616 2.98835e-07 3.41827C-1.40198e-05 3.57332 0.0502909 3.70497 0.150814 3.81322Z" fill="white"/>
</svg>
