<svg width="4" height="7" viewBox="0 0 4 7" fill="none" xmlns="http://www.w3.org/2000/svg">
<path d="M3.84919 3.02333L1.19358 0.166726C1.09578 0.0555601 0.973656 0 0.826967 0C0.680277 0 0.558154 0.0556215 0.460356 0.166726L0.150799 0.495876C0.0503042 0.604122 5.70353e-05 0.735698 5.70353e-05 0.890744C5.70353e-05 1.04285 0.05029 1.176 0.150799 1.29005L2.13034 3.41829L0.150713 5.5509C0.0502472 5.65915 0 5.79073 0 5.94579C0 6.09788 0.0502329 6.23107 0.150713 6.34508L0.460299 6.67419C0.560779 6.78243 0.68303 6.83655 0.82691 6.83655C0.970846 6.83655 1.09307 6.78243 1.19352 6.67419L3.84919 3.81758C3.94971 3.7035 4 3.57038 4 3.41827C4.00001 3.26323 3.94971 3.13157 3.84919 3.02333Z" fill="#426A8E"/>
</svg>
