<svg width="32" height="32" viewBox="0 0 32 32" fill="none" xmlns="http://www.w3.org/2000/svg">
<path d="M24.3287 21.1686C23.2832 20.1365 21.9781 20.1365 20.9393 21.1686C20.1468 21.9544 19.3544 22.7401 18.5753 23.5392C18.3622 23.7589 18.1824 23.8055 17.9227 23.6591C17.41 23.3794 16.8639 23.153 16.3711 22.8467C14.0738 21.4017 12.1493 19.5439 10.4446 17.453C9.5989 16.4142 8.84643 15.3021 8.32036 14.0503C8.21382 13.7972 8.23379 13.6308 8.44023 13.4243C9.23265 12.6586 10.0051 11.8728 10.7842 11.0871C11.8696 9.995 11.8696 8.71649 10.7776 7.61777C10.1583 6.99184 9.53897 6.37922 8.91968 5.75328C8.28041 5.11403 7.6478 4.46812 7.00187 3.83552C5.9564 2.81671 4.65123 2.81671 3.61242 3.84218C2.81333 4.62793 2.04754 5.43366 1.23514 6.20609C0.482665 6.91859 0.1031 7.79091 0.023191 8.80972C-0.103331 10.4678 0.302871 12.0326 0.875549 13.5575C2.04754 16.7138 3.83217 19.5172 5.99636 22.0876C8.91968 25.5635 12.409 28.3136 16.491 30.298C18.3289 31.1903 20.2334 31.8761 22.3044 31.9893C23.7294 32.0692 24.968 31.7097 25.9602 30.5976C26.6394 29.8385 27.4052 29.146 28.1244 28.4202C29.1898 27.3414 29.1965 26.0363 28.1377 24.9709C26.8725 23.699 25.6006 22.4338 24.3287 21.1686Z" fill="#D04D46"/>
<path d="M23.0568 15.8615L25.514 15.442C25.1278 13.1846 24.0624 11.1403 22.4442 9.51556C20.7328 7.80422 18.5686 6.72548 16.1847 6.39254L15.8384 8.86299C17.683 9.12269 19.3611 9.95505 20.6862 11.2802C21.9381 12.532 22.7572 14.1169 23.0568 15.8615Z" fill="#D04D46"/>
<path d="M26.8992 5.18062C24.0624 2.34393 20.4732 0.552688 16.5111 0L16.1648 2.47045C19.5875 2.94989 22.6907 4.50141 25.1412 6.94523C27.4652 9.26918 28.9901 12.2058 29.5428 15.4353L32 15.0158C31.3541 11.2735 29.5894 7.87747 26.8992 5.18062Z" fill="#D04D46"/>
</svg>
