<svg width="32" height="42" viewBox="0 0 32 42" fill="none" xmlns="http://www.w3.org/2000/svg"><path d="M15.515 0C6.96 0 0 6.96 0 15.515c0 2.816 1.263 5.845 1.316 5.973.408.969 1.213 2.473 1.793 3.354l10.638 16.119c.435.66 1.08 1.039 1.768 1.039s1.332-.379 1.768-1.039l10.639-16.119a24.917 24.917 0 0 0 1.793-3.354c.053-.127 1.315-3.156 1.315-5.973C31.03 6.96 24.07 0 15.515 0zm12.517 20.78c-.364.868-1.113 2.267-1.635 3.057L15.76 39.957c-.21.318-.277.318-.487 0L4.634 23.837c-.522-.79-1.27-2.19-1.635-3.058-.016-.037-1.174-2.825-1.174-5.264 0-7.549 6.141-13.69 13.69-13.69 7.549 0 13.69 6.141 13.69 13.69 0 2.442-1.161 5.238-1.173 5.265z" fill="#BE1622"/><path d="M15.515 7.302c-4.53 0-8.214 3.685-8.214 8.214 0 4.528 3.684 8.214 8.214 8.214s8.214-3.686 8.214-8.214c0-4.529-3.684-8.214-8.214-8.214zm0 14.602a6.396 6.396 0 0 1-6.389-6.388 6.396 6.396 0 0 1 6.389-6.389 6.396 6.396 0 0 1 6.389 6.389 6.396 6.396 0 0 1-6.389 6.388z" fill="#BE1622"/></svg>