<svg width="47" height="36" viewBox="0 0 47 36" fill="none" xmlns="http://www.w3.org/2000/svg"><path d="M9.097 28.34c-.45 0-.89.135-1.264.388a2.293 2.293 0 0 0-.837 1.031 2.32 2.32 0 0 0 .493 2.504 2.252 2.252 0 0 0 2.478.498 2.28 2.28 0 0 0 1.02-.846 2.315 2.315 0 0 0-.283-2.9 2.265 2.265 0 0 0-1.607-.674zm0 3.064a.752.752 0 0 1-.7-.472.774.774 0 0 1 .164-.835.756.756 0 0 1 .826-.166.76.76 0 0 1 .468.707.77.77 0 0 1-.222.542.755.755 0 0 1-.536.224zM37.903 28.34c-.45 0-.89.135-1.263.388a2.294 2.294 0 0 0-.838 1.031 2.32 2.32 0 0 0 .493 2.504 2.252 2.252 0 0 0 2.478.498 2.28 2.28 0 0 0 1.021-.846 2.316 2.316 0 0 0-.283-2.9 2.265 2.265 0 0 0-1.608-.674zm0 3.064a.752.752 0 0 1-.7-.472.774.774 0 0 1 .164-.835.756.756 0 0 1 .826-.166.76.76 0 0 1 .468.707.77.77 0 0 1-.222.542.755.755 0 0 1-.536.224z" fill="#BE1622"/><path d="M46.88 17.968L40.057 7.245a.762.762 0 0 0-.638-.351h-9.096V2.68c-.001-.71-.281-1.392-.778-1.895A2.642 2.642 0 0 0 27.669 0H2.653C1.95 0 1.275.283.778.786A2.698 2.698 0 0 0 0 2.681v27.958c0 .203.08.398.222.541a.754.754 0 0 0 .536.224h3.087a5.377 5.377 0 0 0 1.778 3.287A5.274 5.274 0 0 0 9.097 36c1.276 0 2.509-.465 3.473-1.309a5.377 5.377 0 0 0 1.778-3.287h18.304a5.377 5.377 0 0 0 1.778 3.287A5.274 5.274 0 0 0 37.903 36c1.276 0 2.51-.465 3.474-1.309a5.377 5.377 0 0 0 1.778-3.287h3.087c.201 0 .394-.08.536-.224A.77.77 0 0 0 47 30.64V18.383a.774.774 0 0 0-.12-.415zm-37.783 16.5c-.75 0-1.483-.224-2.106-.645a3.821 3.821 0 0 1-1.396-1.719 3.867 3.867 0 0 1-.216-2.213 3.842 3.842 0 0 1 1.038-1.96 3.754 3.754 0 0 1 4.13-.83c.693.29 1.285.78 1.701 1.41a3.858 3.858 0 0 1-.472 4.835 3.775 3.775 0 0 1-2.68 1.122zm19.71-4.595H14.348a5.377 5.377 0 0 0-1.778-3.287 5.274 5.274 0 0 0-3.473-1.309c-1.276 0-2.51.465-3.474 1.309a5.377 5.377 0 0 0-1.778 3.287H1.516v-7.66h27.29v7.66zm0-9.192H1.517v-18c0-.305.12-.597.332-.812.214-.216.503-.337.804-.337H27.67c.302 0 .59.121.804.337.213.215.333.507.334.812v18zm11.66-9.958l4.387 6.894H34.113v-6.894h6.354zm-2.564 23.745c-.75 0-1.482-.224-2.106-.645a3.821 3.821 0 0 1-1.396-1.719 3.867 3.867 0 0 1-.215-2.213 3.843 3.843 0 0 1 1.037-1.96 3.753 3.753 0 0 1 4.13-.83c.693.29 1.285.78 1.702 1.41a3.859 3.859 0 0 1-.473 4.835 3.775 3.775 0 0 1-2.679 1.122zm7.58-10.723h-1.515a.754.754 0 0 1-.536-.225.77.77 0 0 1 0-1.083.754.754 0 0 1 .536-.224h1.516v1.532zm0-3.064h-1.515c-.603 0-1.182.242-1.608.673a2.31 2.31 0 0 0 0 3.25c.426.43 1.005.673 1.608.673h1.516v4.596h-2.33a5.377 5.377 0 0 0-1.777-3.287 5.274 5.274 0 0 0-3.474-1.309c-1.276 0-2.509.465-3.473 1.309a5.377 5.377 0 0 0-1.778 3.287h-2.33V8.426h8.683l.488.766h-6.138a.754.754 0 0 0-.536.224.77.77 0 0 0-.222.542v8.425c0 .203.08.398.222.542a.754.754 0 0 0 .536.224h12.129v1.532z" fill="#BE1622"/><path d="M35.629 20.681h-2.274a.754.754 0 0 0-.536.224.77.77 0 0 0 0 1.084.754.754 0 0 0 .536.224h2.274c.201 0 .394-.08.536-.224a.77.77 0 0 0 0-1.084.754.754 0 0 0-.536-.224zM19.71 25.277h6.064c.201 0 .394-.08.536-.225a.77.77 0 0 0 0-1.083.754.754 0 0 0-.536-.224H19.71a.754.754 0 0 0-.536.224.77.77 0 0 0 0 1.083.754.754 0 0 0 .536.225zM25.774 26.043H23.5a.754.754 0 0 0-.536.224.77.77 0 0 0 0 1.083.754.754 0 0 0 .536.225h2.274c.201 0 .394-.081.536-.225a.77.77 0 0 0 0-1.083.754.754 0 0 0-.536-.224z" fill="#BE1622"/></svg>