<svg width="42" height="39" viewBox="0 0 42 39" fill="none" xmlns="http://www.w3.org/2000/svg"><path d="M40.154 16.285h-.615V7.499c0-2.245-1.748-4.072-3.896-4.072H18.746L7.347.024l-.01-.002-.01-.003-.02-.004-.032-.007-.029-.004a.554.554 0 0 0-.033-.003h-.061l-.026.001a.528.528 0 0 0-.035.004L7.068.01a.547.547 0 0 0-.036.008l-.021.006a.663.663 0 0 0-.09.035L6.9.07a.536.536 0 0 0-.033.019l-.017.01a.567.567 0 0 0-.033.023l-.016.013a.604.604 0 0 0-.03.026l-.016.015a.68.68 0 0 0-.026.027L6.714.22a.635.635 0 0 0-.022.029c-.006.007-.01.014-.015.022a.59.59 0 0 0-.02.029l-.014.026a.59.59 0 0 0-.015.028l-.013.03a.604.604 0 0 0-.011.03l-.01.031c-.003.007-.006.014-.007.02l-.003.01c0 .004-.002.008-.003.011l-.703 2.941H3.897C1.753 3.427.007 5.247 0 7.485L0 7.5v22.285a.63.63 0 0 0 .615.643.63.63 0 0 0 .615-.643v-19.32a3.794 3.794 0 0 0 2.667 1.106H35.645c1.47.002 2.664 1.25 2.664 2.786v4.5h-6.768-.002a.586.586 0 0 0-.11.012l-.01.001a.603.603 0 0 0-.047.012c-.003.002-.007.002-.01.003a.649.649 0 0 0-.041.015c-.005.003-.01.004-.016.006l-.033.017-.021.01-.025.016c-.01.005-.019.01-.027.017l-.018.013-.03.025c-.005.003-.01.008-.013.012-.011.01-.022.019-.032.03l-.017.02-.024.027a.665.665 0 0 0-.036.05l-3.281 5.144a.639.639 0 0 0-.058.113l-.015.045-.005.013a.677.677 0 0 0-.011.048l-.003.013a.638.638 0 0 0-.006.043l-.003.019-.002.035v.054l.002.037c0 .006.002.012.003.017l.006.045.003.012a.689.689 0 0 0 .012.048c0 .004.003.009.004.013l.015.045a.65.65 0 0 0 .058.113l3.28 5.143h.001a.66.66 0 0 0 .043.059l.016.018a.623.623 0 0 0 .09.084l.016.013a.607.607 0 0 0 .058.036l.015.008a.59.59 0 0 0 .115.045l.02.006a.613.613 0 0 0 .05.01c.007 0 .013.002.02.003a.594.594 0 0 0 .064.003H38.309v4.501c0 1.537-1.196 2.786-2.666 2.786H3.897c-1.47 0-2.666-1.25-2.666-2.786V32.356c0-.354-.276-.643-.616-.643-.338 0-.615.29-.615.643v2.572l.001.02C.011 37.184 1.755 39 3.897 39h31.746c2.149 0 3.896-1.826 3.897-4.07 0 0 0-.001 0 0v-4.502h.615c1.017 0 1.845-.865 1.845-1.928V18.212c0-1.063-.828-1.928-1.846-1.928zM7.621 1.443l10.856 3.241h.001l7.276 2.173H6.326L7.62 1.443zm30.688 9.948a3.793 3.793 0 0 0-2.666-1.106H3.897c-1.47 0-2.666-1.25-2.666-2.786s1.196-2.786 2.666-2.786H5.57l-.513 2.144h-1.16a.63.63 0 0 0-.615.643.63.63 0 0 0 .615.643H34.822a.63.63 0 0 0 .615-.643.63.63 0 0 0-.615-.643h-4.59l-7.18-2.144h12.59c1.47 0 2.667 1.25 2.667 2.786v3.892zm2.46 17.108a.63.63 0 0 1-.615.643H31.87l-2.871-4.5 2.87-4.5h8.285l.026-.001c.206-.003.404-.042.59-.11v8.468zm-.615-9.643h-.615v-1.285h.615a.63.63 0 0 1 .615.642.63.63 0 0 1-.615.643z" fill="#BE1622"/><path d="M34.002 22.285c-1.244 0-2.256 1.058-2.256 2.357 0 1.3 1.012 2.357 2.256 2.357 1.244 0 2.256-1.057 2.256-2.357 0-1.3-1.012-2.357-2.256-2.357zm0 3.429c-.566 0-1.026-.48-1.026-1.072 0-.59.46-1.071 1.026-1.071.565 0 1.025.48 1.025 1.071s-.46 1.072-1.025 1.072z" fill="#BE1622"/></svg>