<svg width="35" height="42" viewBox="0 0 35 42" fill="none" xmlns="http://www.w3.org/2000/svg"><path d="M34.998 18.315V6.133a.764.764 0 0 0-.527-.727L17.99.038a.751.751 0 0 0-.491.007.76.76 0 0 0-.493-.007L.528 5.406a.764.764 0 0 0-.527.727l.001 12.153c-.006.178-.47 17.85 17.103 23.675a.748.748 0 0 0 .24.039h.31a.748.748 0 0 0 .24-.039c17.572-5.825 17.11-23.497 17.103-23.646zM17.53 40.471h-.063C1.118 34.977 1.501 19.02 1.526 18.315V6.688l15.952-5.196.022-.008.021.008 15.952 5.197.001 11.656c.006.165.438 16.619-15.943 22.126z" fill="#BE1622"/><path d="M30.238 8.306L17.872 4.134c-.108-.036-.219-.044-.322-.036a.819.819 0 0 0-.32.036L4.865 8.305a.765.765 0 0 0-.52.725l.001 9.493c.005.136.623 13.715 12.93 18.493a.766.766 0 0 0 .55 0c12.307-4.778 12.926-18.357 12.93-18.52V9.03c0-.328-.209-.62-.518-.724zM17.55 35.483C6.46 30.979 5.875 18.594 5.87 18.496V9.579l11.68-3.94 11.682 3.94v8.89c-.005.125-.591 12.51-11.681 17.014z" fill="#BE1622"/><path d="M26.28 15.355a.76.76 0 0 0-1.075.096l-8.824 10.596-5.693-5.992a.761.761 0 0 0-1.078-.028.766.766 0 0 0-.027 1.08l6.283 6.614a.764.764 0 0 0 .552.238l.025-.001a.761.761 0 0 0 .56-.274l9.373-11.253a.765.765 0 0 0-.097-1.076z" fill="#BE1622"/></svg>