<svg width="31" height="23" viewBox="0 0 31 23" fill="none" xmlns="http://www.w3.org/2000/svg">
<path d="M2.65026 0H28.3497C29.721 0.00190387 30.8651 1.06014 30.989 2.44171L17.2185 14.2546C16.2316 15.1059 14.7794 15.1066 13.7918 14.2558L0.0106669 2.45282C0.128624 1.0668 1.27462 0.00190387 2.65026 0ZM2.65026 23C2.0702 23.0006 1.50614 22.8077 1.04561 22.451L8.7313 14.4995C8.87373 14.3545 8.92831 14.1435 8.87435 13.9468C8.82039 13.7497 8.66636 13.5974 8.4706 13.5473C8.27453 13.4972 8.06717 13.5571 7.92725 13.7047L0.313088 21.5819C0.107291 21.1939 -0.00031303 20.7601 6.84e-07 20.3194V3.93403L13.0653 15.124C14.472 16.3352 16.54 16.3346 17.9457 15.1218L31 3.92324V20.3194C31.0006 20.7617 30.8921 21.197 30.6847 21.5861L23.0251 13.7034C22.807 13.4813 22.4528 13.4791 22.232 13.6983C22.0115 13.9179 22.0074 14.2762 22.2232 14.5005L29.9513 22.4536C29.491 22.8087 28.9285 23.0006 28.3497 23H2.65026Z" fill="#D04D46"/>
</svg>
