<svg width="12" height="12" viewBox="0 0 12 12" fill="none" xmlns="http://www.w3.org/2000/svg">
<path d="M8.75171 0H3.24829C1.45715 0 0 1.45715 0 3.24829V8.7518C0 10.5428 1.45715 12 3.24829 12H8.7518C10.5428 12 12 10.5428 12 8.7518V3.24829C12 1.45715 10.5428 0 8.75171 0ZM6 9.28116C4.19073 9.28116 2.71884 7.80927 2.71884 6C2.71884 4.19073 4.19073 2.71884 6 2.71884C7.80927 2.71884 9.28116 4.19073 9.28116 6C9.28116 7.80927 7.80927 9.28116 6 9.28116ZM9.35962 3.49265C8.82495 3.49265 8.39008 3.05777 8.39008 2.5231C8.39008 1.98843 8.82495 1.55347 9.35962 1.55347C9.89429 1.55347 10.3293 1.98843 10.3293 2.5231C10.3293 3.05777 9.89429 3.49265 9.35962 3.49265Z" fill="#BE1622"/>
<path d="M6 3.42233C4.57874 3.42233 3.42233 4.57864 3.42233 6C3.42233 7.42126 4.57874 8.57767 6 8.57767C7.42136 8.57767 8.57767 7.42126 8.57767 6C8.57767 4.57864 7.42136 3.42233 6 3.42233Z" fill="#BE1622"/>
<path d="M9.35962 2.25705C9.21295 2.25705 9.09357 2.37643 9.09357 2.5231C9.09357 2.66977 9.21295 2.78915 9.35962 2.78915C9.50638 2.78915 9.62576 2.66986 9.62576 2.5231C9.62576 2.37634 9.50638 2.25705 9.35962 2.25705Z" fill="#BE1622"/>
</svg>
