<svg width="17" height="12" viewBox="0 0 17 12" fill="none" xmlns="http://www.w3.org/2000/svg">
<path d="M1.45337 0H15.5466C16.2986 0.000993323 16.926 0.553115 16.994 1.27394L9.44242 7.43717C8.90119 7.88135 8.10483 7.88168 7.56326 7.43783L0.00584961 1.27973C0.0705355 0.556592 0.698986 0.000993323 1.45337 0ZM1.45337 12C1.13527 12.0003 0.82595 11.8997 0.573399 11.7136L4.78813 7.56498C4.86624 7.48932 4.89617 7.37923 4.86658 7.27658C4.83699 7.17378 4.75252 7.09431 4.64517 7.06815C4.53765 7.042 4.42393 7.07328 4.3472 7.15027L0.171693 11.2601C0.058837 11.0577 -0.000171662 10.8314 3.75097e-07 10.6014V2.05254L7.16482 7.89079C7.93623 8.52271 9.0703 8.52238 9.8412 7.88963L17 2.04691V10.6014C17.0003 10.8322 16.9408 11.0593 16.8271 11.2623L12.6266 7.1496C12.5071 7.03372 12.3129 7.03256 12.1917 7.14696C12.0708 7.26152 12.0686 7.44843 12.1869 7.56548L16.4249 11.7149C16.1725 11.9002 15.864 12.0003 15.5466 12H1.45337Z" fill="#BE1F2A"/>
</svg>
