<svg width="15" height="15" viewBox="0 0 15 15" fill="none" xmlns="http://www.w3.org/2000/svg">
<path d="M11.4041 9.92279C10.914 9.43898 10.3022 9.43898 9.81528 9.92279C9.44383 10.2911 9.07238 10.6594 8.70717 11.034C8.60728 11.137 8.523 11.1588 8.40127 11.0902C8.16092 10.9591 7.90496 10.853 7.67398 10.7094C6.59708 10.032 5.69499 9.16118 4.89591 8.18108C4.49948 7.69414 4.14676 7.17288 3.90017 6.58606C3.85023 6.46745 3.85959 6.38942 3.95636 6.29266C4.32781 5.9337 4.68989 5.56538 5.0551 5.19706C5.56389 4.68516 5.56389 4.08586 5.05198 3.57083C4.76168 3.27742 4.47139 2.99026 4.1811 2.69685C3.88144 2.3972 3.58491 2.09443 3.28213 1.7979C2.79206 1.32033 2.18026 1.32033 1.69332 1.80102C1.31875 2.16934 0.959785 2.54703 0.578971 2.9091C0.226249 3.24309 0.0483279 3.65199 0.0108708 4.12956C-0.0484364 4.90677 0.141971 5.64029 0.410414 6.35508C0.959785 7.83461 1.79633 9.1487 2.81079 10.3535C4.1811 11.9829 5.81673 13.272 7.73016 14.2022C8.59168 14.6204 9.4844 14.9419 10.4552 14.995C11.1232 15.0325 11.7037 14.8639 12.1688 14.3426C12.4872 13.9868 12.8462 13.6622 13.1833 13.3219C13.6827 12.8163 13.6858 12.2045 13.1895 11.7051C12.5965 11.1089 12.0003 10.5159 11.4041 9.92279Z" fill="#BE1F2A"/>
<path d="M10.668 6.86874C10.7679 7.17543 11.0655 7.3911 11.3834 7.33682C11.7016 7.28248 11.9189 6.97898 11.8289 6.66891C11.5875 5.83662 11.1406 5.08285 10.5207 4.46042C9.8581 3.79782 9.05067 3.33753 8.16 3.10945C7.84712 3.02933 7.55025 3.2557 7.50542 3.57555C7.46059 3.89537 7.68538 4.1867 7.9954 4.27714C8.63471 4.46366 9.21535 4.80628 9.69666 5.28758C10.1448 5.73568 10.4746 6.27478 10.668 6.86874Z" fill="#BE1F2A"/>
<path d="M12.609 2.42842C11.4181 1.23754 9.94426 0.439733 8.31534 0.100023C7.99929 0.034112 7.70325 0.259074 7.65843 0.578795C7.61359 0.898686 7.83734 1.192 8.15278 1.26153C9.52919 1.56488 10.7752 2.24865 11.7849 3.25558C12.7357 4.20634 13.4012 5.37585 13.7274 6.6645C13.8064 6.97699 14.1057 7.19134 14.4235 7.13709C14.7417 7.08276 14.9574 6.77975 14.8812 6.46603C14.51 4.93829 13.7314 3.55354 12.609 2.42842Z" fill="#BE1F2A"/>
</svg>
