<svg width="33" height="33" viewBox="0 0 33 33" fill="none" xmlns="http://www.w3.org/2000/svg">
<path d="M26.0943 20.4423C25.4178 19.7389 24.6017 19.3628 23.7368 19.3628C22.8788 19.3628 22.0558 19.7319 21.3513 20.4354L19.1472 22.6293C18.9659 22.5318 18.7845 22.4412 18.6101 22.3507C18.359 22.2253 18.1219 22.1069 17.9196 21.9816C15.855 20.6722 13.9787 18.9658 12.1792 16.7579C11.3073 15.6575 10.7214 14.7311 10.2959 13.7909C10.8679 13.2685 11.398 12.7252 11.9141 12.2029C12.1094 12.0079 12.3047 11.8059 12.5 11.6109C13.9648 10.1482 13.9648 8.25379 12.5 6.79116L10.5958 4.88975C10.3796 4.67384 10.1564 4.45096 9.94717 4.22809C9.52867 3.79626 9.08924 3.35051 8.63587 2.93262C7.95929 2.26399 7.15019 1.90878 6.29924 1.90878C5.44829 1.90878 4.62524 2.26399 3.92773 2.93262C3.92076 2.93958 3.92076 2.93958 3.91378 2.94655L1.54228 5.3355C0.649477 6.22701 0.140301 7.31353 0.0287012 8.57417C-0.138699 10.6079 0.461152 12.5024 0.921503 13.7421C2.05146 16.7858 3.73941 19.6065 6.25739 22.6293C9.31245 26.2719 12.9883 29.1484 17.1872 31.1752C18.7915 31.9344 20.9328 32.8328 23.3253 32.9861C23.4717 32.993 23.6252 33 23.7647 33C25.3759 33 26.7291 32.4219 27.7893 31.2727C27.7962 31.2588 27.8102 31.2518 27.8172 31.2379C28.1799 30.7991 28.5984 30.4021 29.0378 29.9772C29.3377 29.6917 29.6446 29.3922 29.9445 29.0788C30.6351 28.3614 30.9978 27.5256 30.9978 26.6689C30.9978 25.8053 30.6281 24.9765 29.9236 24.28L26.0943 20.4423ZM28.5914 27.7763C28.5844 27.7833 28.5844 27.7763 28.5914 27.7763C28.3194 28.0689 28.0404 28.3335 27.7404 28.6261C27.2871 29.0579 26.8267 29.5106 26.3943 30.019C25.6898 30.7712 24.8598 31.1264 23.7717 31.1264C23.667 31.1264 23.5554 31.1264 23.4508 31.1195C21.3792 30.9872 19.4541 30.1792 18.0103 29.4897C14.0624 27.5813 10.5958 24.872 7.71517 21.4383C5.33669 18.5757 3.74638 15.9291 2.69316 13.0874C2.04448 11.3532 1.80733 10.002 1.91196 8.7274C1.98171 7.91251 2.29558 7.23691 2.87451 6.65883L5.25299 4.28381C5.59476 3.96342 5.95746 3.7893 6.31319 3.7893C6.75262 3.7893 7.10834 4.05396 7.33154 4.27684C7.33852 4.28381 7.34549 4.29077 7.35247 4.29774C7.77794 4.69473 8.18249 5.10566 8.60797 5.54445C8.82419 5.76732 9.04739 5.9902 9.2706 6.22004L11.1748 8.12145C11.9141 8.85973 11.9141 9.54229 11.1748 10.2806C10.9725 10.4825 10.7772 10.6845 10.5749 10.8795C9.98902 11.4785 9.43102 12.0357 8.82419 12.579C8.81024 12.5929 8.7963 12.5999 8.78932 12.6138C8.18947 13.2128 8.30107 13.7978 8.42662 14.1948C8.43359 14.2157 8.44057 14.2366 8.44754 14.2575C8.94277 15.4555 9.64027 16.5838 10.7005 17.928L10.7074 17.935C12.6326 20.303 14.6623 22.1487 16.9013 23.5626C17.1872 23.7437 17.4802 23.8899 17.7592 24.0292C18.0103 24.1546 18.2474 24.273 18.4497 24.3984C18.4776 24.4123 18.5055 24.4332 18.5334 24.4471C18.7706 24.5655 18.9938 24.6213 19.2239 24.6213C19.8029 24.6213 20.1656 24.2591 20.2841 24.1407L22.6696 21.7587C22.9067 21.5219 23.2834 21.2363 23.7228 21.2363C24.1553 21.2363 24.511 21.5079 24.7272 21.7448C24.7342 21.7517 24.7342 21.7517 24.7412 21.7587L28.5844 25.5963C29.3028 26.3068 29.3028 27.0381 28.5914 27.7763Z" fill="#BE1F2A"/>
<path d="M17.8359 7.84982C19.6634 8.15628 21.3234 9.01992 22.6487 10.3433C23.9739 11.6666 24.8319 13.3242 25.1457 15.149C25.2225 15.6087 25.62 15.9291 26.0734 15.9291C26.1292 15.9291 26.178 15.9221 26.2338 15.9152C26.75 15.8316 27.0918 15.344 27.0081 14.8286C26.6314 12.6208 25.5852 10.6079 23.9879 9.01296C22.3906 7.418 20.3748 6.37327 18.1637 5.99717C17.6476 5.91359 17.1663 6.25487 17.0756 6.7633C16.985 7.27174 17.3198 7.76624 17.8359 7.84982Z" fill="#BE1F2A"/>
<path d="M32.9856 14.557C32.3649 10.9213 30.649 7.61302 28.0125 4.98029C25.3759 2.34757 22.0628 0.634209 18.4218 0.0143348C17.9126 -0.0762087 17.4314 0.272035 17.3407 0.780471C17.257 1.29587 17.5988 1.77645 18.1149 1.86699C21.3653 2.41722 24.3297 3.95646 26.6872 6.30362C29.0448 8.65775 30.5793 11.6178 31.1303 14.8635C31.207 15.3231 31.6046 15.6435 32.058 15.6435C32.1138 15.6435 32.1626 15.6366 32.2184 15.6296C32.7276 15.553 33.0763 15.0654 32.9856 14.557Z" fill="#BE1F2A"/>
</svg>
