<svg width="17" height="9" viewBox="0 0 17 9" fill="none" xmlns="http://www.w3.org/2000/svg">
<path d="M15.0731 3.76271C15.3148 3.47273 15.5068 3.24007 15.6485 3.06453C16.6693 1.80524 17.1117 1.0008 16.9761 0.650082L16.9229 0.567943C16.8876 0.518607 16.7959 0.4733 16.6486 0.43229C16.501 0.391309 16.3122 0.384761 16.0822 0.411814L13.5331 0.428497C13.4741 0.423045 13.415 0.424319 13.356 0.43229C13.297 0.440616 13.2587 0.448972 13.2409 0.456943C13.2231 0.465299 13.2084 0.471996 13.1967 0.477448L13.1614 0.502102C13.1319 0.518429 13.0994 0.547261 13.0641 0.588449C13.0286 0.629607 12.9989 0.677314 12.9755 0.732251C12.6982 1.3947 12.3825 2.01074 12.0284 2.58017C11.8101 2.91966 11.6094 3.21417 11.4267 3.46296C11.2437 3.71231 11.0903 3.89567 10.9664 4.01316C10.8425 4.13085 10.7303 4.2255 10.6301 4.29644C10.5296 4.36788 10.453 4.39781 10.4 4.38693C10.3468 4.37606 10.2966 4.36518 10.2495 4.35392C10.1669 4.30479 10.1004 4.23785 10.0504 4.15281C10.0002 4.06815 9.96636 3.9613 9.94854 3.83255C9.93094 3.70398 9.92041 3.59301 9.91766 3.49979C9.91453 3.40677 9.91609 3.27548 9.92216 3.10554C9.92804 2.93578 9.93094 2.82102 9.93094 2.76063C9.93094 2.55279 9.93545 2.32685 9.94429 2.08313C9.95307 1.83959 9.96052 1.64645 9.96636 1.50407C9.97223 1.36189 9.97514 1.21119 9.97514 1.05233C9.97514 0.893832 9.96479 0.769053 9.944 0.678588C9.92331 0.588448 9.89224 0.500857 9.8512 0.415814C9.80978 0.331127 9.74936 0.265286 9.66962 0.218883C9.58991 0.172272 9.49117 0.135469 9.37317 0.107882C9.06024 0.0420407 8.66196 0.00686783 8.17824 0.00108966C7.08065 -0.00942958 6.3755 0.0562047 6.06279 0.198377C5.93889 0.258767 5.8267 0.340728 5.72646 0.444824C5.62015 0.565425 5.60549 0.631237 5.68229 0.641756C6.03642 0.691092 6.28701 0.808967 6.43455 0.995024L6.48772 1.09349C6.52894 1.16493 6.5702 1.29081 6.61162 1.47141C6.65288 1.65205 6.67945 1.85188 6.69136 2.07095C6.72087 2.47062 6.72087 2.81266 6.69136 3.09757C6.66186 3.38245 6.63391 3.60406 6.60734 3.76256C6.58074 3.92142 6.54089 4.04999 6.48791 4.14846C6.43474 4.24728 6.39939 4.30749 6.3816 4.32942C6.36381 4.35117 6.34915 4.36494 6.33743 4.37043C6.26063 4.39763 6.18108 4.41141 6.09843 4.41141C6.01575 4.41141 5.91548 4.37294 5.79745 4.29623C5.67939 4.2199 5.55685 4.11435 5.4302 3.98015C5.30316 3.84615 5.16029 3.65847 5.00081 3.41744C4.84152 3.1768 4.67616 2.8919 4.50515 2.56349L4.36365 2.32519C4.27512 2.17214 4.15412 1.9489 4.00071 1.65602C3.8473 1.36314 3.71145 1.07989 3.59361 0.805886C3.54631 0.691093 3.47554 0.603501 3.38118 0.543112L3.33701 0.518459C3.3075 0.496679 3.26021 0.4733 3.19532 0.448795C3.13023 0.424141 3.06263 0.406362 2.99167 0.395309L0.566457 0.411637C0.318644 0.411637 0.150572 0.463877 0.062049 0.567943L0.0266654 0.617102C0.00878203 0.64466 0 0.688544 0 0.748578C0 0.808967 0.0177876 0.88278 0.0531712 0.970193C0.407295 1.74236 0.792331 2.48698 1.20822 3.20401C1.62432 3.92142 1.9857 4.49918 2.29253 4.93713C2.59935 5.37544 2.91206 5.78854 3.23083 6.17733C3.5496 6.56613 3.76047 6.8151 3.86365 6.92447C3.96683 7.03419 4.04794 7.11636 4.10699 7.17091L4.32823 7.3682C4.46973 7.49953 4.67788 7.6569 4.9523 7.84044C5.22668 8.02395 5.53041 8.20459 5.86403 8.38232C6.19727 8.5604 6.58541 8.70527 7.02786 8.81772C7.47035 8.93015 7.90108 8.97527 8.3201 8.95317H9.33798C9.54457 8.93684 9.70085 8.87684 9.80704 8.77253L9.84239 8.73155C9.86583 8.6989 9.88812 8.64814 9.90881 8.57975C9.92935 8.51139 9.93995 8.43595 9.93995 8.35399C9.93385 8.11862 9.95323 7.90608 9.9974 7.71747C10.0416 7.52851 10.0918 7.38634 10.1479 7.29024C10.204 7.19465 10.2673 7.11378 10.3382 7.04794C10.409 6.9821 10.459 6.94275 10.4887 6.92897C10.5182 6.91555 10.5419 6.90595 10.5595 6.90014C10.701 6.8564 10.8677 6.89887 11.0596 7.02744C11.2513 7.15639 11.4314 7.31486 11.5996 7.50383C11.7677 7.69279 11.9697 7.90477 12.2059 8.14034C12.4418 8.37571 12.6483 8.55089 12.8254 8.66586L13.0025 8.76471C13.1205 8.83017 13.2737 8.89038 13.4627 8.94535C13.6515 8.99993 13.8169 9.01371 13.9584 8.98633L16.2243 8.95332C16.4485 8.95332 16.6226 8.91924 16.7465 8.85067C16.8704 8.78267 16.9441 8.70687 16.9678 8.62491C16.9912 8.54277 16.9928 8.45011 16.9723 8.34581C16.9516 8.24189 16.9309 8.16935 16.9104 8.12837C16.8897 8.08739 16.8704 8.05293 16.8527 8.02573C16.5576 7.53301 15.9941 6.92785 15.1621 6.21064L15.1443 6.19431L15.1355 6.18599L15.1267 6.17799H15.1179C14.7401 5.84395 14.5012 5.61943 14.401 5.50428C14.2181 5.2856 14.1766 5.06381 14.2771 4.83932C14.3474 4.66908 14.6129 4.31039 15.0731 3.76271Z" fill="#BE1622"/>
</svg>
