<svg width="3" height="5" viewBox="0 0 3 5" fill="none" xmlns="http://www.w3.org/2000/svg">
<path d="M2.88689 2.21115L0.895183 0.121938C0.821834 0.0406346 0.730242 0 0.620225 0C0.510208 0 0.418616 0.0406796 0.345267 0.121938L0.113099 0.362665C0.0377282 0.441832 4.27765e-05 0.538063 4.27765e-05 0.651457C4.27765e-05 0.762705 0.0377175 0.860082 0.113099 0.943498L1.59776 2.50001L0.113035 4.05973C0.0376854 4.1389 0 4.23513 0 4.34853C0 4.45977 0.0376747 4.55718 0.113035 4.64056L0.345225 4.88125C0.420585 4.96042 0.512273 5 0.620182 5C0.728135 5 0.819801 4.96042 0.89514 4.88125L2.88689 2.79204C2.96228 2.7086 3 2.61125 3 2.5C3.00001 2.38661 2.96228 2.29032 2.88689 2.21115Z" fill="#BE1F2A"/>
</svg>
