<svg width="16" height="20" viewBox="0 0 16 20" fill="none" xmlns="http://www.w3.org/2000/svg">
<path d="M7.61719 0C3.41719 0 0 3.41719 0 7.61719C0 9.2793 0.525 10.8586 1.51953 12.1836L7.14766 19.7637C7.16172 19.7821 7.1832 19.7891 7.19883 19.8055C7.48008 20.1067 7.88594 20.0309 8.08633 19.7637C9.70703 17.6012 12.6777 13.5625 13.8199 12.0391L13.8207 12.0371L13.8277 12.0277C14.748 10.7348 15.2344 9.20977 15.2344 7.61719C15.2344 3.41719 11.8172 0 7.61719 0ZM7.61719 11.7266C5.35586 11.7266 3.50781 9.87852 3.50781 7.61719C3.50781 5.35586 5.35586 3.50781 7.61719 3.50781C9.87852 3.50781 11.7266 5.35586 11.7266 7.61719C11.7266 9.87852 9.87852 11.7266 7.61719 11.7266Z" fill="#BE1F2A"/>
</svg>
