<svg width="27" height="24" viewBox="0 0 27 24" fill="none" xmlns="http://www.w3.org/2000/svg">
<path d="M7.17163 0C8.63675 0 9.98 0.467469 11.164 1.38945C12.2991 2.27336 13.0548 3.39919 13.4998 4.21784C13.9447 3.39913 14.7004 2.27336 15.8355 1.38945C17.0195 0.467469 18.3628 0 19.8279 0C23.9165 0 26.9998 3.36727 26.9998 7.8326C26.9998 12.6567 23.1532 15.9573 17.3299 20.9539C16.341 21.8025 15.2202 22.7643 14.0552 23.7901C13.9016 23.9254 13.7044 24 13.4998 24C13.2951 24 13.0979 23.9254 12.9444 23.7901C11.7792 22.7642 10.6584 21.8024 9.66897 20.9534C3.84636 15.9573 -0.000244141 12.6567 -0.000244141 7.8326C-0.000244141 3.36727 3.08303 0 7.17163 0Z" fill="#BE1622"/>
</svg>
