<svg width="27" height="24" viewBox="0 0 27 24" fill="none" xmlns="http://www.w3.org/2000/svg"><path d="M13.06 4.457l.44.808.44-.808c.426-.785 1.142-1.847 2.203-2.673l-.305-.391.305.39C17.241.93 18.477.501 19.828.501 23.6.5 26.5 3.601 26.5 7.833c0 2.259-.894 4.181-2.537 6.178-1.656 2.012-4.035 4.055-6.958 6.564l.325.379-.325-.38-.002.002c-.988.848-2.11 1.811-3.278 2.839a.34.34 0 0 1-.45 0 333.959 333.959 0 0 0-3.28-2.84v-.001l-.326.38.326-.38c-2.923-2.508-5.302-4.551-6.958-6.563C1.394 12.014.5 10.09.5 7.833.5 3.6 3.4.5 7.172.5c1.35 0 2.587.429 3.685 1.284l.307-.395-.307.395c1.062.826 1.777 1.888 2.204 2.673z" fill="#fff" stroke="#BE1622"/></svg>