<svg width="45" height="40" viewBox="0 0 45 40" fill="none" xmlns="http://www.w3.org/2000/svg">
<path d="M24.3496 22.5215C24.3496 24.9928 24.1549 27.2611 23.7656 29.3262C23.3763 31.3913 22.7246 33.1771 21.8105 34.6836C20.9134 36.1732 19.7285 37.3411 18.2559 38.1875C16.8001 39.0169 14.9974 39.4316 12.8477 39.4316C10.8672 39.4316 9.18294 39.0762 7.79492 38.3652C6.42383 37.6374 5.30664 36.5625 4.44336 35.1406C3.59701 33.7188 2.97917 31.9668 2.58984 29.8848C2.21745 27.7858 2.03125 25.3652 2.03125 22.623C2.03125 20.1686 2.22591 17.9089 2.61523 15.8438C3.00456 13.7617 3.64779 11.9759 4.54492 10.4863C5.44206 8.97982 6.61849 7.81185 8.07422 6.98242C9.54688 6.13607 11.3581 5.71289 13.5078 5.71289C15.4883 5.71289 17.1641 6.07682 18.5352 6.80469C19.9232 7.51562 21.0488 8.58203 21.9121 10.0039C22.7754 11.4258 23.3932 13.1862 23.7656 15.2852C24.1549 17.3672 24.3496 19.7793 24.3496 22.5215ZM21.0996 22.8008C21.0996 21.125 21.0319 19.61 20.8965 18.2559C20.778 16.8848 20.5833 15.666 20.3125 14.5996C20.0417 13.5332 19.6947 12.6107 19.2715 11.832C18.8652 11.0365 18.3659 10.3848 17.7734 9.87695C17.1979 9.35221 16.5378 8.97135 15.793 8.73438C15.0482 8.48047 14.2103 8.35352 13.2793 8.35352C11.6035 8.35352 10.2409 8.7513 9.19141 9.54688C8.15885 10.3255 7.34635 11.3665 6.75391 12.6699C6.17839 13.9733 5.78906 15.4629 5.58594 17.1387C5.38281 18.8145 5.28125 20.5495 5.28125 22.3438C5.28125 24.849 5.42513 27.0156 5.71289 28.8438C6.00065 30.6549 6.45768 32.153 7.08398 33.3379C7.71029 34.5059 8.51432 35.3776 9.49609 35.9531C10.4779 36.5117 11.6712 36.791 13.0762 36.791C14.1934 36.791 15.1667 36.6133 15.9961 36.2578C16.8255 35.9023 17.5365 35.403 18.1289 34.7598C18.7214 34.1165 19.2122 33.3548 19.6016 32.4746C19.9909 31.5944 20.2956 30.638 20.5156 29.6055C20.7357 28.5729 20.888 27.4811 20.9727 26.3301C21.0573 25.179 21.0996 24.0026 21.0996 22.8008Z" fill="#B21919"/>
<path d="M34.6782 8.11035C34.6782 8.73698 34.609 9.30664 34.4707 9.81934C34.3324 10.332 34.1208 10.7715 33.8359 11.1377C33.5511 11.4958 33.189 11.7765 32.7495 11.98C32.3182 12.1834 31.8096 12.2852 31.2236 12.2852C30.6296 12.2852 30.1209 12.1916 29.6978 12.0044C29.2746 11.8172 28.9287 11.5487 28.6602 11.1987C28.3916 10.8407 28.1922 10.4093 28.062 9.90479C27.9399 9.39209 27.8789 8.81022 27.8789 8.15918C27.8789 7.5651 27.944 7.01579 28.0742 6.51123C28.2126 6.00667 28.4201 5.57129 28.6968 5.20508C28.9735 4.83887 29.3275 4.54997 29.7588 4.33838C30.1982 4.12679 30.715 4.021 31.3091 4.021C31.952 4.021 32.4891 4.13086 32.9204 4.35059C33.3599 4.57031 33.7098 4.86735 33.9702 5.2417C34.2306 5.60791 34.4137 6.03923 34.5195 6.53564C34.6253 7.03206 34.6782 7.55697 34.6782 8.11035ZM32.9692 8.17139C32.9692 7.71566 32.9367 7.31283 32.8716 6.96289C32.8065 6.60482 32.7048 6.30778 32.5664 6.07178C32.4362 5.83577 32.2612 5.66081 32.0415 5.54688C31.8218 5.4248 31.5614 5.36377 31.2603 5.36377C30.9754 5.36377 30.7272 5.42074 30.5156 5.53467C30.304 5.6486 30.1291 5.8195 29.9907 6.04736C29.8605 6.27523 29.7629 6.56006 29.6978 6.90186C29.6326 7.23551 29.6001 7.63021 29.6001 8.08594C29.6001 8.63932 29.6367 9.10319 29.71 9.47754C29.7913 9.84375 29.9012 10.1367 30.0396 10.3564C30.186 10.568 30.3651 10.7186 30.5767 10.8081C30.7964 10.8895 31.0446 10.9302 31.3213 10.9302C31.6468 10.9302 31.9113 10.8691 32.1147 10.7471C32.3263 10.625 32.4932 10.446 32.6152 10.21C32.7454 9.96582 32.835 9.67692 32.8838 9.34326C32.9408 9.00146 32.9692 8.61084 32.9692 8.17139ZM43.9922 16.0083C43.9922 16.6349 43.923 17.2046 43.7847 17.7173C43.6463 18.23 43.4347 18.6694 43.1499 19.0356C42.8651 19.3937 42.5029 19.6745 42.0635 19.8779C41.6322 20.0814 41.1235 20.1831 40.5376 20.1831C39.9435 20.1831 39.4349 20.0895 39.0117 19.9023C38.5885 19.7152 38.2427 19.4466 37.9741 19.0967C37.7056 18.7386 37.5062 18.3073 37.376 17.8027C37.2539 17.29 37.1929 16.7082 37.1929 16.0571C37.1929 15.4631 37.258 14.9137 37.3882 14.4092C37.5265 13.9046 37.734 13.4692 38.0107 13.103C38.2874 12.7368 38.6414 12.4479 39.0728 12.2363C39.5122 12.0247 40.029 11.9189 40.623 11.9189C41.266 11.9189 41.8031 12.0288 42.2344 12.2485C42.6738 12.4683 43.0238 12.7653 43.2842 13.1396C43.5446 13.5059 43.7277 13.9372 43.8335 14.4336C43.9393 14.93 43.9922 15.4549 43.9922 16.0083ZM42.2832 16.0693C42.2832 15.6136 42.2507 15.2108 42.1855 14.8608C42.1204 14.5028 42.0187 14.2057 41.8804 13.9697C41.7502 13.7337 41.5752 13.5588 41.3555 13.4448C41.1357 13.3228 40.8753 13.2617 40.5742 13.2617C40.2894 13.2617 40.0412 13.3187 39.8296 13.4326C39.618 13.5465 39.443 13.7174 39.3047 13.9453C39.1745 14.1732 39.0768 14.458 39.0117 14.7998C38.9466 15.1335 38.9141 15.5282 38.9141 15.9839C38.9141 16.5373 38.9507 17.0011 39.0239 17.3755C39.1053 17.7417 39.2152 18.0347 39.3535 18.2544C39.5 18.466 39.679 18.6165 39.8906 18.7061C40.1104 18.7874 40.3586 18.8281 40.6353 18.8281C40.9608 18.8281 41.2253 18.7671 41.4287 18.645C41.6403 18.5229 41.8071 18.3439 41.9292 18.1079C42.0594 17.8638 42.1489 17.5749 42.1978 17.2412C42.2547 16.8994 42.2832 16.5088 42.2832 16.0693ZM31.2236 20.0977C31.1829 20.1709 31.1341 20.2238 31.0771 20.2563C31.0202 20.297 30.951 20.3296 30.8696 20.354C30.7882 20.3866 30.6906 20.4069 30.5767 20.415C30.4627 20.4313 30.3244 20.4395 30.1616 20.4395C29.9826 20.4395 29.8361 20.4232 29.7222 20.3906C29.6164 20.3581 29.5391 20.3133 29.4902 20.2563C29.4495 20.2075 29.4333 20.1424 29.4414 20.061C29.4577 19.9878 29.4984 19.9023 29.5635 19.8047L40.5498 4.06982C40.5905 4.00472 40.6393 3.95182 40.6963 3.91113C40.7533 3.8623 40.8224 3.82568 40.9038 3.80127C40.9933 3.77686 41.091 3.76058 41.1968 3.75244C41.3107 3.73617 41.4531 3.72803 41.624 3.72803C41.7949 3.72803 41.9333 3.7443 42.0391 3.77686C42.153 3.80127 42.2344 3.84196 42.2832 3.89893C42.332 3.95589 42.3483 4.02507 42.332 4.10645C42.3239 4.18783 42.2873 4.27327 42.2222 4.36279L31.2236 20.0977Z" fill="#B21919"/>
</svg>
