<svg width="48" height="64" viewBox="0 0 48 64" fill="none" xmlns="http://www.w3.org/2000/svg">
<path d="M24 0C10.7668 0 0 10.935 0 24.375C0 29.6938 1.65415 34.7475 4.78769 38.9875L22.5206 63.2439C22.5649 63.3026 22.6326 63.3251 22.6818 63.3776C23.568 64.3414 24.8468 64.0989 25.4782 63.2439C30.5846 56.3239 39.9446 43.4 43.5434 38.525L43.5458 38.5188L43.568 38.4888C46.4677 34.3513 48 29.4713 48 24.375C48 10.935 37.2332 0 24 0ZM24 37.525C16.8751 37.525 11.0523 31.6113 11.0523 24.375C11.0523 17.1388 16.8751 11.225 24 11.225C31.1249 11.225 36.9477 17.1388 36.9477 24.375C36.9477 31.6113 31.1249 37.525 24 37.525Z" fill="#D04D46"/>
</svg>
