<svg width="97" height="113" viewBox="0 0 97 113" fill="none" xmlns="http://www.w3.org/2000/svg"><path fill-rule="evenodd" clip-rule="evenodd" d="M62.067 65.356c-9.737 2.53-20.227 5.44-28.926.756-9.12-4.91-13.401-14.494-14.164-23.957-.754-9.36 2.622-18.648 10.209-25.13C36.892 10.44 47.58 7.298 58.163 8.67c10.62 1.377 19.689 7.227 25.301 15.392 5.782 8.412 9.038 18.895 4.408 27.83-4.398 8.487-15.733 10.847-25.805 13.464z" fill="#BE1622"/><path fill-rule="evenodd" clip-rule="evenodd" d="M73.768 87.47c-5.918 7.317-12.166 15.344-22.269 16.409-10.59 1.116-20.61-4.094-27.774-11.134-7.085-6.963-10.867-16.127-9.385-25.382 1.505-9.401 7.75-17.72 17.04-22.424 9.322-4.721 20.525-5.07 30.61-1.704 10.389 3.467 20.224 9.947 22.773 19.518 2.42 9.092-4.874 17.149-10.995 24.717z" fill="#BE1622"/></svg>