<svg width="162" height="190" viewBox="0 0 162 190" fill="none" xmlns="http://www.w3.org/2000/svg">
<path fill-rule="evenodd" clip-rule="evenodd" d="M104.262 109.946C87.9011 114.197 70.2731 119.086 55.6559 111.215C40.3318 102.964 33.1379 86.861 31.8566 70.9588C30.5894 55.2313 36.2622 39.624 49.0101 28.7307C61.959 17.6657 79.9204 12.3868 97.7026 14.6924C115.549 17.0063 130.787 26.8364 140.217 40.5565C149.933 54.6906 155.404 72.306 147.625 87.3195C140.234 101.582 121.187 105.548 104.262 109.946Z" fill="#BE1622"/>
<path fill-rule="evenodd" clip-rule="evenodd" d="M123.925 147.105C113.981 159.399 103.482 172.888 86.506 174.678C68.7091 176.554 51.8731 167.799 39.8351 155.969C27.9294 144.269 21.5753 128.87 24.0653 113.318C26.5945 97.52 37.0861 83.5412 52.6966 75.6365C68.3631 67.7035 87.1871 67.1187 104.133 72.7737C121.591 78.5993 138.119 89.4881 142.401 105.571C146.469 120.85 134.211 134.388 123.925 147.105Z" fill="#BE1622"/>
</svg>
