<svg width="162" height="190" viewBox="0 0 162 190" fill="none" xmlns="http://www.w3.org/2000/svg"><path fill-rule="evenodd" clip-rule="evenodd" d="M104.262 109.946c-16.36 4.251-33.989 9.14-48.606 1.269-15.324-8.251-22.518-24.354-23.8-40.256C30.59 55.23 36.263 39.624 49.01 28.73 61.96 17.666 79.92 12.387 97.703 14.692c17.846 2.314 33.084 12.144 42.514 25.864 9.716 14.135 15.187 31.75 7.408 46.764-7.391 14.262-26.438 18.228-43.363 22.626z" fill="#BE1622"/><path fill-rule="evenodd" clip-rule="evenodd" d="M123.925 147.105c-9.944 12.294-20.443 25.783-37.419 27.573-17.797 1.876-34.633-6.879-46.67-18.709-11.907-11.7-18.26-27.099-15.77-42.651 2.529-15.798 13.02-29.777 28.63-37.681 15.667-7.933 34.491-8.518 51.437-2.863 17.458 5.825 33.986 16.714 38.268 32.797 4.068 15.279-8.19 28.817-18.476 41.534z" fill="#BE1622"/></svg>