<svg width="16" height="16" viewBox="0 0 16 16" fill="none" xmlns="http://www.w3.org/2000/svg"><path d="M7.046 0A7.054 7.054 0 0 0 0 7.046a7.054 7.054 0 0 0 7.046 7.046 7.054 7.054 0 0 0 7.046-7.046A7.054 7.054 0 0 0 7.046 0zm0 12.791a5.752 5.752 0 0 1-5.745-5.745 5.752 5.752 0 0 1 5.745-5.745 5.752 5.752 0 0 1 5.745 5.745 5.752 5.752 0 0 1-5.745 5.745z" fill="#BE1622"/><path d="M15.81 14.89l-3.73-3.73a.65.65 0 1 0-.92.92l3.73 3.73a.648.648 0 0 0 .92 0 .65.65 0 0 0 0-.92z" fill="#BE1622"/></svg>