<svg width="14" height="14" viewBox="0 0 14 14" fill="none" xmlns="http://www.w3.org/2000/svg"><path d="M14 7c0-3.86-3.14-7-7-7S0 3.14 0 7s3.14 7 7 7 7-3.14 7-7zM.609 7A6.398 6.398 0 0 1 7 .609 6.398 6.398 0 0 1 13.391 7 6.398 6.398 0 0 1 7 13.391 6.398 6.398 0 0 1 .609 7z" fill="#AC262F"/><path d="M10.957 7a.305.305 0 0 0-.305-.304H3.348a.304.304 0 0 0 0 .608h7.304A.304.304 0 0 0 10.957 7z" fill="#AC262F"/><path d="M8.433 9.65l2.435-2.435a.305.305 0 0 0 0-.43L8.433 4.35a.305.305 0 0 0-.43.43L10.221 7l-2.22 2.22a.306.306 0 0 0 0 .43.305.305 0 0 0 .43 0z" fill="#AC262F"/></svg>