<svg width="14" height="14" viewBox="0 0 14 14" fill="none" xmlns="http://www.w3.org/2000/svg">
<path d="M14 6.99999C14 3.14027 10.8597 1.68714e-07 6.99999 0C3.14027 -1.68714e-07 1.68714e-07 3.14027 0 6.99999C-1.68714e-07 10.8597 3.14027 14 6.99999 14C10.8597 14 14 10.8597 14 6.99999ZM0.608685 6.99999C0.608685 3.47564 3.47564 0.608686 6.99999 0.608686C10.5243 0.608686 13.3913 3.47564 13.3913 6.99999C13.3913 10.5243 10.5243 13.3913 6.99999 13.3913C3.47564 13.3913 0.608685 10.5243 0.608685 6.99999Z" fill="#AC262F"/>
<path d="M10.9565 6.99996C10.9565 6.83197 10.8201 6.69561 10.6521 6.69561H3.34781C3.17981 6.69561 3.04345 6.83197 3.04345 6.99996C3.04345 7.16796 3.17984 7.30431 3.34784 7.30431H10.6522C10.8202 7.30431 10.9565 7.16796 10.9565 6.99996Z" fill="#AC262F"/>
<path d="M8.43282 9.65025L10.8676 7.21548C10.9863 7.09679 10.9863 6.90382 10.8676 6.78513L8.43282 4.35036C8.31413 4.23167 8.12116 4.23167 8.00246 4.35036C7.88377 4.46906 7.88377 4.66202 8.00246 4.78072L10.2218 7.00001L8.00184 9.21929C7.9428 9.27896 7.91296 9.35685 7.91296 9.43477C7.91296 9.51269 7.94277 9.59059 8.00243 9.65025C8.12119 9.76894 8.31413 9.76894 8.43282 9.65025Z" fill="#AC262F"/>
</svg>
