<svg width="31" height="32" viewBox="0 0 31 32" fill="none" xmlns="http://www.w3.org/2000/svg"><path d="M30.414 4.713l.409-.408a.606.606 0 0 0-.857-.856l-.408.408-.408-.408a.605.605 0 0 0-.428-.177h-.666L24.964.179a.606.606 0 0 0-.429-.177H2.181C.978.002 0 .98 0 2.182V13.53c0 1.202.978 2.18 2.18 2.18h5.275l-3.547 3.547c-.412.412-.638.96-.638 1.542 0 .583.226 1.13.638 1.542l8.023 8.023c.412.412.96.639 1.542.639.583 0 1.13-.227 1.542-.639l6.009-6.009a.605.605 0 1 0-.856-.856l-6.01 6.009a.963.963 0 0 1-.685.284.963.963 0 0 1-.685-.284l-8.024-8.023a.963.963 0 0 1-.284-.686c0-.259.101-.502.284-.685l15.63-15.63h8.077l.23.23-1.4 1.4a1.818 1.818 0 0 0-2.599 1.639c0 1.002.816 1.817 1.817 1.817a1.818 1.818 0 0 0 1.639-2.6l1.4-1.4.23.231v8.077l-5.767 5.768a.606.606 0 0 0 .856.856l5.945-5.945a.605.605 0 0 0 .178-.428V5.549a.606.606 0 0 0-.178-.428l-.408-.408zm-19.541 6.153a.606.606 0 1 1 .001-1.212.606.606 0 0 1-.001 1.212zm9.27-7.594a.605.605 0 0 0-.428.177l-7.04 7.041a1.819 1.819 0 0 0-1.801-2.047 1.819 1.819 0 0 0-1.818 1.817 1.819 1.819 0 0 0 2.047 1.802l-2.437 2.436H2.181a.97.97 0 0 1-.97-.97V2.183a.97.97 0 0 1 .97-.97h22.104l2.059 2.06h-6.2zm6.376 5.086a.606.606 0 0 1 0-1.211c.138 0 .266.047.368.125a.591.591 0 0 0 .112.113.606.606 0 0 1-.48.973z" fill="#BE1622"/><path d="M20.137 17.913c.161 0 .315-.063.429-.177l1.37-1.37a.606.606 0 0 0-.857-.856l-.942.942-2.996-2.997a.606.606 0 0 0-.857.856l3.425 3.425a.606.606 0 0 0 .428.177zM24.847 12.599a.606.606 0 0 0-.856 0l-.771.77-.856-.856.77-.77a.605.605 0 1 0-.856-.857l-.77.77-.857-.855.77-.771a.605.605 0 0 0-.855-.856l-1.2 1.198a.605.605 0 0 0 0 .857l3.426 3.425a.604.604 0 0 0 .856 0l1.199-1.2a.605.605 0 0 0 0-.855zM18.15 19.56a.605.605 0 0 0 .55-1.079l-4.538-2.312a.605.605 0 0 0-.815.814l2.312 4.539a.605.605 0 1 0 1.08-.55l-.186-.365 1.233-1.233.364.186zm-2.175-.087l-.703-1.38 1.38.703-.677.677zM12.346 24.244a.606.606 0 0 0 .856.856l.856-.856a1.819 1.819 0 0 0 0-2.57 1.819 1.819 0 0 0-2.524-.044l-.045.045a.601.601 0 0 1-.856 0 .606.606 0 0 1 0-.856l.856-.857a.606.606 0 0 0-.856-.856l-.856.856a1.819 1.819 0 0 0 1.284 3.101c.485 0 .94-.188 1.283-.53l.002-.002a.606.606 0 0 1 .856.856l-.856.857zM10.374 3.91a.605.605 0 0 0-.825.23l-3.905 6.918a.605.605 0 1 0 1.054.595l3.905-6.918a.605.605 0 0 0-.23-.824zM7.579 5.45a1.819 1.819 0 0 0-1.817-1.816 1.819 1.819 0 0 0-1.816 1.817c0 1.002.815 1.817 1.816 1.817A1.819 1.819 0 0 0 7.58 5.45zm-2.422 0a.606.606 0 1 1 1.212.002.606.606 0 0 1-1.212-.001zM22.523 21.394a.609.609 0 0 0-.606.605.61.61 0 0 0 .605.606.61.61 0 0 0 .429-.178.61.61 0 0 0 .177-.428.61.61 0 0 0-.605-.605z" fill="#BE1622"/></svg>