<svg width="30" height="31" viewBox="0 0 30 31" fill="none" xmlns="http://www.w3.org/2000/svg"><path d="M28.311 15.902a.909.909 0 0 1 0-.803l1.157-2.366a2.691 2.691 0 0 0-1.162-3.573l-2.325-1.234a.908.908 0 0 1-.472-.65l-.455-2.593a2.691 2.691 0 0 0-3.04-2.209l-2.607.37a.908.908 0 0 1-.763-.25L16.752.765a2.691 2.691 0 0 0-3.758 0l-1.892 1.831a.909.909 0 0 1-.764.248l-2.607-.368a2.69 2.69 0 0 0-3.04 2.208l-.454 2.593a.909.909 0 0 1-.472.65L1.439 9.16a2.691 2.691 0 0 0-1.161 3.573L1.434 15.1a.909.909 0 0 1 0 .803L.278 18.267a2.691 2.691 0 0 0 1.161 3.573l2.326 1.234c.25.133.423.37.472.65l.455 2.593a2.69 2.69 0 0 0 3.04 2.209l2.606-.369c.281-.04.56.05.764.248l1.892 1.83a2.693 2.693 0 0 0 3.758 0l1.892-1.83a.909.909 0 0 1 .763-.248l2.607.369a2.69 2.69 0 0 0 3.04-2.209l.455-2.593a.908.908 0 0 1 .472-.65l2.325-1.234a2.691 2.691 0 0 0 1.162-3.573l-1.157-2.365zm-.843 4.359l-2.325 1.234a2.685 2.685 0 0 0-1.395 1.92l-.455 2.593a.91.91 0 0 1-1.028.747l-2.607-.368a2.685 2.685 0 0 0-2.258.733l-1.892 1.83a.91.91 0 0 1-1.27 0l-1.893-1.83a2.682 2.682 0 0 0-2.257-.733l-2.607.368a.91.91 0 0 1-1.028-.747l-.455-2.593a2.685 2.685 0 0 0-1.395-1.92L2.277 20.26a.91.91 0 0 1-.393-1.21l1.156-2.364a2.685 2.685 0 0 0 0-2.374l-1.156-2.365a.91.91 0 0 1 .393-1.209l2.326-1.234a2.685 2.685 0 0 0 1.395-1.92l.454-2.593a.91.91 0 0 1 1.029-.747l2.607.368a2.685 2.685 0 0 0 2.257-.733l1.892-1.83a.91.91 0 0 1 1.271 0L17.4 3.88a2.685 2.685 0 0 0 2.258.733l2.606-.368a.91.91 0 0 1 1.029.747l.455 2.593a2.685 2.685 0 0 0 1.395 1.92l2.325 1.234a.91.91 0 0 1 .393 1.21l-1.156 2.364a2.685 2.685 0 0 0 0 2.374l1.156 2.365a.91.91 0 0 1-.393 1.209z" fill="#BE1622"/><path d="M21.405 8.968a.894.894 0 0 0-1.265 0l-11.8 11.8a.894.894 0 0 0 1.265 1.264l11.8-11.8a.894.894 0 0 0 0-1.264zM11.297 7.454a3.282 3.282 0 0 0-3.278 3.278 3.282 3.282 0 0 0 3.278 3.278 3.282 3.282 0 0 0 3.278-3.278 3.282 3.282 0 0 0-3.278-3.278zm0 4.768c-.822 0-1.49-.668-1.49-1.49 0-.821.668-1.49 1.49-1.49.821 0 1.49.669 1.49 1.49 0 .822-.669 1.49-1.49 1.49zM18.448 16.99a3.282 3.282 0 0 0-3.277 3.278 3.282 3.282 0 0 0 3.277 3.278 3.282 3.282 0 0 0 3.278-3.278 3.282 3.282 0 0 0-3.277-3.278zm0 4.768c-.821 0-1.49-.669-1.49-1.49 0-.822.669-1.49 1.49-1.49.822 0 1.49.668 1.49 1.49 0 .821-.668 1.49-1.49 1.49z" fill="#BE1622"/></svg>