<svg width="31" height="31" viewBox="0 0 31 31" fill="none" xmlns="http://www.w3.org/2000/svg"><path d="M26.398 24.945a.606.606 0 1 0 0-1.211.606.606 0 0 0 0 1.211zM6.055 21.313a3.637 3.637 0 0 0-3.633 3.632 3.637 3.637 0 0 0 3.633 3.633 3.637 3.637 0 0 0 3.633-3.633 3.637 3.637 0 0 0-3.633-3.633zm0 6.054a2.425 2.425 0 0 1-2.422-2.422 2.425 2.425 0 0 1 2.422-2.422 2.425 2.425 0 0 1 2.422 2.422 2.425 2.425 0 0 1-2.422 2.422z" fill="#BE1622"/><path d="M30.395 20.102H17.55l8.755-8.755a.605.605 0 0 0 0-.857L20.31 4.496a.605.605 0 0 0-.856 0l-8.557 8.557V.605A.605.605 0 0 0 10.293 0H1.816a.605.605 0 0 0-.605.605v20.708A6.069 6.069 0 0 0 0 24.945 6.062 6.062 0 0 0 6.055 31c1.309 0 2.59-.429 3.632-1.21h20.708a.605.605 0 0 0 .605-.606v-8.477a.605.605 0 0 0-.605-.605zm-14.793-10.04l5.137 5.138-4.281 4.28-5.138-5.136 4.282-4.282zM12.02 23.918a6.062 6.062 0 0 0-1.123-2.605v-5.678l4.704 4.702-3.581 3.58zm-9.6-9.871V7.629h7.267v6.418H2.421zm0 1.21h7.267V20.1a6.03 6.03 0 0 0-3.633-1.21 6.03 6.03 0 0 0-3.633 1.21v-4.842zm9.655 10.318l3.666-3.666v6.67h-4.844a6.04 6.04 0 0 0 1.178-3.004zm4.877-4.262h6.418v7.265h-6.418v-7.265zm2.93-15.532l5.137 5.137-3.425 3.426-5.137-5.139 3.425-3.424zM9.688 1.21v5.207H2.421V1.211h7.265zM1.21 24.945a4.841 4.841 0 0 1 4.844-4.843 4.844 4.844 0 1 1-4.844 4.844zm28.578 3.633h-2.785v-1.816a.605.605 0 1 0-1.211 0v1.816h-1.211v-7.265h5.207v7.265z" fill="#BE1622"/></svg>