<svg width="34" height="25" viewBox="0 0 34 25" fill="none" xmlns="http://www.w3.org/2000/svg"><path d="M32.587 13.052a2.371 2.371 0 0 0-2.326-.2 23.37 23.37 0 0 1-3.983 1.365V8.774c0-1.187-1.263-2.216-3.654-2.982 0 0-.001-2.91-.003-2.927-.056-1.29-2.14-1.991-3.893-2.354a.493.493 0 0 0-.549.296.52.52 0 0 0 .24.68c.068.033.14.048.212.048 2.45.52 3.006 1.188 3.006 1.383 0 .168-.407.71-2.264 1.207-1.659.444-3.873.689-6.234.689-2.361 0-4.576-.245-6.235-.689-1.857-.497-2.263-1.04-2.263-1.207 0-.167.406-.71 2.263-1.206 1.66-.444 3.873-.689 6.235-.689 1.072 0 2.12.05 3.116.151a.499.499 0 0 0 .539-.46.507.507 0 0 0-.444-.558A32.22 32.22 0 0 0 13.14 0c-2.442 0-4.744.256-6.482.721-1.993.534-3.003 1.273-3.003 2.197v2.874C1.262 6.558 0 7.586 0 8.774v8.486c0 .31.074.615.213.883.655 1.265 1.819 2.42 3.457 3.434.08.05.167.073.253.073a.49.49 0 0 0 .424-.25.522.522 0 0 0-.17-.701c-.303-.187-.588-.381-.856-.58v-4.368a.503.503 0 0 0-.493-.512.503.503 0 0 0-.494.512v3.536c-.54-.524-.963-1.072-1.252-1.628a.871.871 0 0 1-.095-.399V8.774c0-.496.714-1.237 2.667-1.908V7.9c0 .925 1.01 1.664 3.003 2.198 1.738.465 4.04.72 6.482.72s4.744-.255 6.481-.72c1.993-.534 3.004-1.273 3.004-2.198V6.866c1.954.672 2.666 1.414 2.666 1.908 0 .864-1.866 1.702-3.463 2.157a.514.514 0 0 0-.346.629.497.497 0 0 0 .607.358c1.424-.406 2.498-.894 3.202-1.448v3.976c-.543.116-1.098.218-1.663.307v-.923a.503.503 0 0 0-.494-.512.503.503 0 0 0-.494.512v1.063c-.828.105-1.674.18-2.533.227v-.625a.503.503 0 0 0-.494-.512.503.503 0 0 0-.494.512v.664a37.368 37.368 0 0 1-2.467-.016v-.239a.503.503 0 0 0-.494-.511.503.503 0 0 0-.494.511v.186c-3.334-.225-6.484-.904-9.057-1.968-.236-.097-.209-.305-.186-.39.023-.087.105-.285.363-.242 1.927.323 4.125.494 6.356.494 2.407 0 4.755-.197 6.79-.57a.51.51 0 0 0 .4-.593.496.496 0 0 0-.573-.415c-1.978.363-4.266.555-6.617.555-2.179 0-4.322-.167-6.198-.481-.683-.114-1.288.288-1.473.98-.006.022-.01.045-.015.068-.737-.44-1.656-1.112-2.216-1.972a.483.483 0 0 0-.685-.138.523.523 0 0 0-.133.71c1.208 1.856 3.687 2.89 3.82 2.944h.001c3.313 1.37 7.533 2.124 11.883 2.124 3.254 0 6.401-.415 9.165-1.192v7.746a29.742 29.742 0 0 1-4.302.903v-4.086a.503.503 0 0 0-.493-.512.503.503 0 0 0-.494.512v4.206a36.538 36.538 0 0 1-3.876.204h-.053V19.77a.503.503 0 0 0-.494-.511.503.503 0 0 0-.493.511v4.19a35.444 35.444 0 0 1-3.93-.326v-4.337a.503.503 0 0 0-.493-.512.503.503 0 0 0-.493.512v4.184a28.209 28.209 0 0 1-3.93-.958v-4.386a.503.503 0 0 0-.493-.511.503.503 0 0 0-.494.511v4.041a20.61 20.61 0 0 1-1.067-.434.488.488 0 0 0-.648.27c-.106.26.01.56.261.671C9.18 24.178 13.558 25 18.123 25c5.61 0 10.842-1.226 14.358-3.365a2.573 2.573 0 0 0 1.215-2.192v-4.268c0-.86-.415-1.653-1.109-2.123zM20.336 8.8V7.715a.503.503 0 0 0-.494-.511.503.503 0 0 0-.493.511v1.397c-.7.186-1.5.337-2.365.449V8.088a.503.503 0 0 0-.494-.512.503.503 0 0 0-.493.512v1.581c-.756.069-1.55.11-2.365.122V8.024a.503.503 0 0 0-.493-.511.503.503 0 0 0-.494.511v1.767a31.232 31.232 0 0 1-2.364-.122V7.743a.503.503 0 0 0-.494-.512.503.503 0 0 0-.494.512V9.56a18.617 18.617 0 0 1-2.364-.449V7.025a.503.503 0 0 0-.494-.512.503.503 0 0 0-.493.512V8.8c-1.043-.396-1.301-.767-1.301-.9V4.318c.49.302 1.163.568 2.016.797 1.738.465 4.04.72 6.482.72s4.744-.255 6.481-.72c.853-.229 1.526-.495 2.017-.797v3.58c0 .133-.259.505-1.301.901zm12.373 10.643c0 .535-.28 1.037-.728 1.31-1.077.655-2.327 1.22-3.706 1.687v-7.733a22.49 22.49 0 0 0 2.382-.917c.462-.21.969-.167 1.39.118.42.285.661.747.661 1.267v4.268z" fill="#BE1622"/><path d="M30.492 15.53c-.783 0-1.374.944-1.374 2.194s.591 2.192 1.374 2.192c.783 0 1.373-.942 1.373-2.192 0-1.25-.59-2.193-1.373-2.193zm0 3.363c-.09-.015-.386-.41-.386-1.17 0-.759.297-1.154.385-1.17.09.016.387.411.387 1.17 0 .76-.297 1.155-.385 1.17zM8.895 1.895c-1.29.197-2.15.467-2.15 1.143 0 .677.86.947 2.15 1.144 1.138.174 2.645.27 4.244.27 1.599 0 3.106-.096 4.243-.27 1.29-.197 2.15-.467 2.15-1.144 0-.676-.86-.946-2.15-1.143-1.137-.174-2.644-.27-4.243-.27-1.6 0-3.106.096-4.244.27zm9.052 1.143c-.858.193-2.477.39-4.808.39s-3.95-.197-4.808-.39c.858-.193 2.477-.39 4.808-.39 2.33 0 3.95.197 4.808.39z" fill="#BE1622"/></svg>