<svg width="14" height="12" viewBox="0 0 14 12" fill="none" xmlns="http://www.w3.org/2000/svg"><path d="M13.315 4.272a.945.945 0 0 0-.563-.283l-3.398-.44L8.01.532C7.814.09 7.273-.117 6.803.067a.896.896 0 0 0-.496.466L4.963 3.548l-3.398.44c-.506.067-.859.506-.788.981.03.204.136.392.3.529l2.56 2.142-.526 3.363a.839.839 0 0 0 .424.862.96.96 0 0 0 1.008-.017l2.616-1.67 2.615 1.672c.422.268.996.165 1.283-.23.13-.18.183-.4.149-.615L10.68 7.64l2.56-2.143a.832.832 0 0 0 .075-1.226zM9.888 7.157a.414.414 0 0 0-.147.382l.548 3.6-2.873-1.834a.481.481 0 0 0-.513 0l-2.889 1.822.562-3.59a.414.414 0 0 0-.147-.38l-2.74-2.318 3.656-.473c.16-.021.297-.12.36-.26L7.163.857a.019.019 0 0 1 .004.006l1.444 3.242c.063.14.2.238.36.259l3.66.494-2.744 2.299z" fill="#C7CED6"/></svg>