<svg width="14" height="12" viewBox="0 0 14 12" fill="none" xmlns="http://www.w3.org/2000/svg"><path d="M13.123 4.272a.945.945 0 0 0-.564-.283l-3.397-.44L7.818.532C7.62.09 7.08-.117 6.61.067a.896.896 0 0 0-.496.466L4.77 3.548l-3.397.44c-.506.067-.86.506-.789.981.03.204.137.392.301.529l2.56 2.142-.526 3.363a.839.839 0 0 0 .423.862.96.96 0 0 0 1.009-.017l2.615-1.67 2.615 1.672c.423.268.997.165 1.283-.23.13-.18.184-.4.15-.615l-.526-3.364 2.56-2.143a.832.832 0 0 0 .075-1.226zM9.696 7.157a.414.414 0 0 0-.147.382l.547 3.6-2.872-1.834a.481.481 0 0 0-.513 0l-2.89 1.822.563-3.59a.414.414 0 0 0-.148-.38L1.497 4.839l3.656-.473c.16-.021.296-.12.359-.26L6.972.857a.019.019 0 0 1 .003.006L8.42 4.105c.062.14.199.238.359.259l3.66.494-2.743 2.299z" fill="#FEB300"/></svg>