<svg width="17" height="17" viewBox="0 0 17 17" fill="none" xmlns="http://www.w3.org/2000/svg">
<path d="M16.8407 6.8344C16.2024 3.49253 13.5075 0.797632 10.1656 0.159268C4.18747 -0.982621 -0.982621 4.18747 0.159268 10.1656C0.797665 13.5074 3.49257 16.2024 6.8344 16.8407C12.8125 17.9826 17.9826 12.8125 16.8407 6.8344ZM12.4387 12.4387C12.2312 12.6462 11.9594 12.75 11.6875 12.75C11.4156 12.75 11.1438 12.6462 10.9363 12.4387L7.74878 9.25122C7.54956 9.052 7.4375 8.78223 7.4375 8.5V4.25C7.4375 3.6627 7.91323 3.1875 8.5 3.1875C9.08677 3.1875 9.5625 3.66273 9.5625 4.25V8.06006L12.4387 10.9363C12.8538 11.3513 12.8538 12.0237 12.4387 12.4387Z" fill="#BE1622"/>
</svg>
