<svg width="27" height="16" viewBox="0 0 27 16" fill="none" xmlns="http://www.w3.org/2000/svg"><path d="M23.94 6.69c.384-.516.688-.93.913-1.242 1.622-2.239 2.324-3.669 2.11-4.292l-.085-.146c-.056-.088-.202-.169-.436-.241-.235-.073-.534-.085-.9-.037l-4.048.03a1.11 1.11 0 0 0-.464.05l-.07.037-.057.044a.633.633 0 0 0-.154.153 1.002 1.002 0 0 0-.14.256 24.23 24.23 0 0 1-1.505 3.285 31.534 31.534 0 0 1-.956 1.57c-.29.443-.534.769-.73.978-.198.209-.376.377-.535.503-.16.127-.281.18-.365.161a6.784 6.784 0 0 1-.24-.059.95.95 0 0 1-.316-.357 1.65 1.65 0 0 1-.161-.57 6.368 6.368 0 0 1-.05-.591 12.13 12.13 0 0 1 .008-.701c.01-.302.014-.506.014-.613 0-.37.007-.771.02-1.205l.036-1.03c.01-.252.014-.52.014-.802 0-.282-.017-.504-.05-.665a2.385 2.385 0 0 0-.147-.467.776.776 0 0 0-.288-.35 1.592 1.592 0 0 0-.471-.197c-.497-.117-1.13-.18-1.898-.19-1.743-.019-2.863.098-3.36.35a1.91 1.91 0 0 0-.534.439c-.169.214-.192.331-.07.35.562.088.96.297 1.195.628l.084.175c.066.127.131.35.197.672.065.321.107.676.127 1.066.046.71.046 1.318 0 1.825-.047.506-.092.9-.134 1.182a2.434 2.434 0 0 1-.19.686c-.084.176-.14.283-.168.322a.253.253 0 0 1-.07.073 1.02 1.02 0 0 1-.38.073c-.132 0-.29-.069-.478-.205a3.376 3.376 0 0 1-.584-.562 7.475 7.475 0 0 1-.682-1 17.562 17.562 0 0 1-.787-1.519l-.224-.423c-.141-.272-.333-.67-.577-1.19-.244-.52-.46-1.024-.647-1.511A.964.964 0 0 0 5.37.966L5.3.922a.945.945 0 0 0-.225-.124A1.472 1.472 0 0 0 4.75.703L.9.732c-.394 0-.66.093-.801.278l-.057.087A.486.486 0 0 0 0 1.331c0 .107.028.238.084.394A49.027 49.027 0 0 0 1.92 5.696c.66 1.275 1.235 2.303 1.722 3.081.487.78.984 1.514 1.49 2.205.507.691.841 1.134 1.005 1.328.164.195.293.341.387.438l.351.351c.225.233.556.513.991.84.436.326.919.647 1.448.963.53.317 1.146.574 1.849.774.703.2 1.387.28 2.052.24h1.617c.328-.028.576-.135.745-.32l.056-.073c.037-.058.073-.149.106-.27.032-.122.049-.256.049-.402-.01-.418.021-.796.091-1.131.07-.336.15-.589.24-.76a1.863 1.863 0 0 1 .54-.642c.047-.024.085-.04.113-.051.225-.078.49-.002.794.226.305.23.59.511.858.847.267.336.588.713.963 1.132.375.418.703.73.984.934l.281.176c.187.116.43.223.731.32.3.098.563.122.787.074l3.599-.059c.356 0 .633-.06.83-.182.196-.121.313-.256.35-.402.038-.146.04-.31.008-.496a1.867 1.867 0 0 0-.098-.387 2.003 2.003 0 0 0-.092-.182c-.469-.876-1.364-1.952-2.685-3.227l-.028-.029-.014-.015-.014-.014h-.014c-.6-.594-.98-.993-1.139-1.198-.29-.388-.356-.783-.197-1.182.112-.302.534-.94 1.265-1.914z" fill="#BE1622"/></svg>