<svg width="9" height="6" viewBox="0 0 9 6" fill="none" xmlns="http://www.w3.org/2000/svg">
<path d="M5.01993 5.06728L8.78051 1.57129C8.92686 1.44254 9 1.28177 9 1.08866C9 0.895553 8.92678 0.734785 8.78051 0.606038L8.3472 0.198519C8.2047 0.0662232 8.03149 7.5042e-05 7.82738 7.50331e-05C7.62713 7.50243e-05 7.45185 0.0662044 7.3017 0.198519L4.49998 2.80449L1.69249 0.198406C1.54999 0.0661478 1.37677 -3.33222e-07 1.17264 -3.42145e-07C0.972418 -3.50897e-07 0.797079 0.066129 0.646991 0.198406L0.213741 0.605963C0.0712404 0.73824 -3.93043e-08 0.899178 -4.75837e-08 1.08859C-5.58664e-08 1.27807 0.0712404 1.43897 0.213741 1.57121L3.97433 5.06728C4.12452 5.19961 4.29975 5.26582 4.5 5.26582C4.70411 5.26583 4.87743 5.19961 5.01993 5.06728Z" fill="#BE1622"/>
</svg>
